<svg width="213" height="165" viewBox="0 0 213 165" fill="none" xmlns="http://www.w3.org/2000/svg">
<g id="Illustration">
<circle id="Ellipse 1" cx="110" cy="90" r="75" fill="#E5E2FF"/>
<circle id="Ellipse 2" cx="77" cy="5" r="5" fill="#3629B7"/>
<circle id="Ellipse 3" cx="200.5" cy="34.5" r="12.5" fill="#FF4267"/>
<circle id="Ellipse 4" cx="183" cy="136" r="5" fill="#0890FE"/>
<circle id="Ellipse 5" cx="52" cy="136" r="10" fill="#FFAF2A"/>
<circle id="Ellipse 6" cx="5" cy="70" r="5" fill="#52D5BA"/>
<g id="Group 291">
<g id="Group">
<g id="Group_2">
<path id="Vector" d="M120.538 87.4256C119.92 87.4256 119.393 86.9077 119.393 86.2787V76.1783C119.393 70.8877 115.178 66.5959 109.982 66.5959C104.786 66.5959 100.57 70.9062 100.57 76.1783V86.2787C100.57 86.9077 100.062 87.4256 99.4259 87.4256H93.1032C92.4854 87.4256 91.9767 86.9077 91.9767 86.2787V76.1783C91.9767 66.0595 100.062 57.8275 110 57.8275C119.938 57.8275 128.023 66.0595 128.023 76.1783V86.2787C128.023 86.9077 127.515 87.4256 126.879 87.4256H120.538Z" fill="#5655B9"/>
<path id="Vector_2" d="M110 58.9744C119.302 58.9744 126.879 66.6884 126.879 76.1598V86.2602H120.556V76.1598C120.556 70.2402 115.832 65.412 110 65.412C104.186 65.412 99.444 70.2217 99.444 76.1598V86.2602H93.1213V76.1598C93.1213 66.6884 100.679 58.9744 110 58.9744ZM110 56.6806C99.444 56.6806 90.8503 65.4305 90.8503 76.1783V86.2787C90.8503 87.5551 91.8677 88.5911 93.1213 88.5911H99.444C100.698 88.5911 101.715 87.5551 101.715 86.2787V76.1783C101.715 71.5351 105.421 67.7429 110 67.7429C114.56 67.7429 118.285 71.5351 118.285 76.1783V86.2787C118.285 87.5551 119.302 88.5911 120.556 88.5911H126.879C128.132 88.5911 129.15 87.5551 129.15 86.2787V76.1783C129.15 65.412 120.556 56.6806 110 56.6806Z" fill="white"/>
</g>
</g>
<g id="Group_3">
<g id="Group_4">
<path id="Vector_3" d="M88.8881 129.566C87.3619 129.566 86.1265 128.308 86.1265 126.754V87.9251C86.1265 86.3712 87.3619 85.1133 88.8881 85.1133H131.112C132.638 85.1133 133.874 86.3712 133.874 87.9251V126.736C133.874 128.29 132.638 129.548 131.112 129.548H88.8881V129.566Z" fill="#5655B9"/>
<g id="Group_5">
<path id="Vector_4" d="M131.112 86.2787C132.002 86.2787 132.729 87.0187 132.729 87.9436V126.754C132.729 127.661 132.002 128.419 131.112 128.419H88.8881C87.9797 128.419 87.2711 127.679 87.2711 126.754V87.9251C87.2711 87.0187 87.9978 86.2602 88.8881 86.2602H131.112V86.2787ZM131.112 83.9664H88.8881C86.7442 83.9664 85 85.7423 85 87.9251V126.736C85 128.919 86.7442 130.694 88.8881 130.694H131.112C133.256 130.694 135 128.919 135 126.736V87.9251C135 85.7423 133.256 83.9664 131.112 83.9664Z" fill="white"/>
</g>
</g>
<g id="Group_6">
<path id="Vector_5" d="M131.112 86.2787H122.863V116.876C122.863 117.782 122.137 118.522 121.228 118.522H87.2529V126.736C87.2529 127.642 87.9797 128.401 88.8699 128.401H131.094C131.984 128.401 132.711 127.661 132.711 126.736V87.9251C132.729 87.0187 132.002 86.2787 131.112 86.2787Z" fill="#5655B9"/>
</g>
<g id="Group_7">
<path id="Vector_6" d="M131.112 86.2787H128.023V121.501C128.023 122.425 127.297 123.147 126.388 123.147H87.2529V126.754C87.2529 127.661 87.9797 128.419 88.8699 128.419H131.094C131.984 128.419 132.711 127.679 132.711 126.754V87.9251C132.729 87.0187 132.002 86.2787 131.112 86.2787Z" fill="#5655B9"/>
</g>
</g>
<path id="Vector_7" d="M108.171 111.696C108.171 111.438 108.013 111.207 107.773 111.114C105.431 110.207 103.775 107.903 103.775 105.203C103.775 101.71 106.574 98.8903 109.982 98.8903C113.407 98.8903 116.189 101.709 116.189 105.203C116.189 107.903 114.533 110.207 112.191 111.114C111.951 111.207 111.792 111.438 111.792 111.696V114.952C111.792 115.987 110.971 116.806 109.982 116.806C108.993 116.806 108.171 115.987 108.171 114.952V111.696Z" fill="#5655B9" stroke="white" stroke-width="1.2486" stroke-miterlimit="10" stroke-linecap="round" stroke-linejoin="round"/>
</g>
</g>
</svg>
